# Blender v2.74 (sub 0) OBJ File: ''
# www.blender.org
mtllib rock.mtl
o Cube_Cube.001
v 0.358772 0.431224 -0.514173
v 0.294526 -0.426705 -0.482302
v -0.420835 -0.381805 -0.473343
v -0.276976 0.334334 -0.512290
v 0.521501 0.409417 0.426581
v 0.177602 -0.605528 0.386583
v -0.407910 -0.442384 0.498050
v -0.272745 0.592629 0.502366
v 0.418163 0.059198 -0.546221
v 0.026906 0.313409 -0.479701
v 0.480144 0.488674 -0.000914
v -0.061825 -0.491595 -0.512448
v 0.462107 -0.552634 -0.048096
v -0.437853 0.047384 -0.621783
v -0.659224 -0.341434 -0.068494
v -0.474291 0.453422 -0.045337
v 0.390172 -0.019158 0.554167
v 0.042103 0.634027 0.460332
v -0.137939 -0.692000 0.480363
v -0.470837 -0.003919 0.598588
v -0.006316 0.024097 -0.667775
v 0.018443 0.101492 0.636456
v 0.470073 -0.067613 0.119946
v 0.104031 -0.546180 -0.068000
v -0.659552 0.025612 -0.085884
v -0.079930 0.614570 -0.158764
v 0.403546 -0.188103 -0.521820
v -0.128583 0.280818 -0.469977
v 0.554330 0.472726 0.210152
v -0.215149 -0.461751 -0.468168
v 0.374528 -0.570598 0.108251
v -0.344946 0.214843 -0.594500
v -0.512635 -0.487231 0.270035
v -0.389811 0.572577 0.303014
v 0.323383 -0.360831 0.632418
v -0.069997 0.720465 0.476282
v -0.244114 -0.531152 0.476889
v -0.542409 0.286740 0.552974
v 0.416809 0.255146 -0.572002
v 0.187580 0.410722 -0.534672
v 0.432509 0.515022 -0.285486
v 0.097434 -0.476429 -0.533588
v 0.405835 -0.525179 -0.278922
v -0.462292 -0.183788 -0.593437
v -0.628536 -0.308284 -0.336296
v -0.425310 0.406243 -0.364319
v 0.492782 0.237788 0.530898
v 0.308182 0.519881 0.456705
v -0.026112 -0.718418 0.441609
v -0.470572 -0.258552 0.581338
v -0.190490 0.014956 -0.637476
v 0.192169 0.044424 -0.667312
v 0.069117 0.212984 -0.570418
v -0.042510 -0.238385 -0.637718
v -0.079204 -0.252327 0.643365
v 0.025199 0.397726 0.577478
v 0.244600 0.116312 0.637067
v -0.241337 0.004510 0.630202
v 0.506984 -0.403342 0.071563
v 0.506843 0.275891 0.047644
v 0.507560 0.025554 -0.233784
v 0.420365 -0.079005 0.414630
v -0.417428 -0.515837 -0.106957
v 0.266812 -0.579474 -0.077958
v -0.054048 -0.602008 -0.299936
v -0.026748 -0.640877 0.088279
v -0.703959 0.289846 -0.172248
v -0.658593 -0.183610 -0.060185
v -0.619377 0.102235 -0.543246
v -0.593222 -0.018132 0.414642
v -0.310183 0.561001 -0.032798
v 0.222527 0.598601 -0.070644
v 0.061290 0.732892 0.234972
v -0.072206 0.493560 -0.374957
v -0.252368 -0.236930 -0.600084
v -0.271168 -0.279273 0.619324
v 0.446372 -0.392387 0.414153
v -0.377804 -0.556937 0.160035
v -0.687776 0.279910 0.295516
v -0.300419 0.449202 -0.305906
v -0.143875 0.238699 -0.594871
v 0.219223 0.263049 -0.645368
v 0.153382 -0.213268 -0.656367
v 0.137112 -0.345477 0.651598
v 0.320626 0.286666 0.622154
v -0.217671 0.355764 0.588248
v 0.539067 -0.298728 -0.274008
v 0.529517 0.342424 -0.322896
v 0.569417 0.282814 0.280391
v -0.282678 -0.538775 -0.273324
v 0.197710 -0.559782 -0.302476
v 0.209676 -0.564181 0.119116
v -0.538575 0.323234 -0.484390
v -0.620152 -0.195057 -0.396455
v -0.573728 -0.298711 0.374348
v -0.105279 0.686710 0.295730
v 0.320815 0.611434 0.243646
v 0.205085 0.479353 -0.332836
vt 0.137636 0.563411
vt 0.058285 0.569867
vt 0.082613 0.506661
vt 0.152906 0.498683
vt 0.155028 0.344089
vt 0.206316 0.378186
vt 0.155630 0.402329
vt 0.099783 0.387655
vt 0.896175 0.282885
vt 0.854473 0.349296
vt 0.794976 0.248970
vt 0.870663 0.174892
vt 0.949240 0.587705
vt 0.944083 0.694636
vt 0.905653 0.682602
vt 0.916733 0.604517
vt 0.336809 0.082005
vt 0.369246 0.000842
vt 0.489191 0.000000
vt 0.460672 0.063535
vt 0.485748 0.254952
vt 0.512673 0.310590
vt 0.481603 0.323059
vt 0.447322 0.276247
vt 0.276846 0.583529
vt 0.215363 0.578539
vt 0.223692 0.502410
vt 0.270084 0.523882
vt 0.288525 0.695621
vt 0.226456 0.694739
vt 0.220811 0.635843
vt 0.266533 0.646047
vt 0.149628 0.688747
vt 0.060049 0.668982
vt 0.053708 0.620010
vt 0.140662 0.629249
vt 0.046020 0.277128
vt 0.115533 0.299946
vt 0.042023 0.402498
vt 0.011393 0.383384
vt 0.133867 0.094672
vt 0.226136 0.127633
vt 0.165692 0.199396
vt 0.116225 0.149680
vt 0.273683 0.187557
vt 0.335575 0.267841
vt 0.258354 0.321530
vt 0.206193 0.274302
vt 0.422948 0.654063
vt 0.520455 0.684734
vt 0.477461 0.726331
vt 0.404599 0.713241
vt 0.422729 0.459207
vt 0.529375 0.479105
vt 0.539575 0.580737
vt 0.439840 0.553878
vt 0.744126 0.814485
vt 0.672331 0.787452
vt 0.683844 0.711964
vt 0.731678 0.707183
vt 0.016271 0.536299
vt 0.006598 0.482318
vt 0.054401 0.402498
vt 0.090851 0.431859
vt 0.857058 0.070133
vt 0.855242 0.125920
vt 0.818683 0.137473
vt 0.786060 0.070157
vt 0.829103 0.182611
vt 0.720806 0.251159
vt 0.693981 0.268226
vt 0.758736 0.168010
vt 0.408067 0.318081
vt 0.348488 0.225548
vt 0.431026 0.176751
vt 0.834672 0.401576
vt 0.821728 0.494375
vt 0.758928 0.488146
vt 0.747834 0.361119
vt 0.853441 0.628842
vt 0.844101 0.700647
vt 0.766741 0.707183
vt 0.766456 0.640000
vt 0.554998 0.057463
vt 0.491069 0.166304
vt 0.661203 0.071636
vt 0.642437 0.169965
vt 0.565426 0.199969
vt 0.608937 0.072162
vt 0.628288 0.255903
vt 0.619708 0.321108
vt 0.560004 0.310321
vt 0.556413 0.271543
vt 0.934356 0.187628
vt 0.907061 0.133559
vt 0.622627 0.581780
vt 0.617335 0.678426
vt 0.662917 0.562066
vt 0.672331 0.661064
vt 0.939564 0.506329
vt 0.869574 0.490922
vt 0.791582 0.866218
vt 0.744126 0.821215
vt 0.752056 0.707183
vt 0.791426 0.711743
vt 1.000000 0.606532
vt 0.999879 0.706758
vt 0.672331 0.596657
vt 0.677773 0.459778
vt 0.674914 0.687648
vt 0.387737 0.801509
vt 0.336809 0.833560
vt 0.336920 0.785916
vt 0.384519 0.726331
vt 0.506205 0.350977
vt 0.448079 0.354288
vt 0.559475 0.342029
vt 0.609960 0.361119
vt 0.324683 0.722893
vt 0.278588 0.749240
vt 0.320949 0.673747
vt 0.218381 0.752553
vt 0.143231 0.752483
vt 0.069266 0.722735
vt 0.808347 0.361119
vt 0.056221 0.145884
vt 0.000000 0.241327
vt 0.085645 0.065345
vt 0.116277 0.014773
vt 0.187902 0.035191
vt 0.273048 0.064123
vt 0.316518 0.068429
vt 0.336809 0.140426
vt 0.340137 0.610197
vt 0.336809 0.674909
vt 0.339988 0.536299
vt 0.336833 0.476818
vt 0.353162 0.419686
vt 0.429528 0.400325
vt 0.517650 0.412671
vt 0.604166 0.482239
vt 0.586459 0.423461
vt 0.646477 0.441109
vt 0.670954 0.491413
vt 0.000000 0.608449
vt 0.694133 0.143704
vt 0.736508 0.092307
vt 0.012308 0.682984
vt 0.019832 0.742597
vt 0.913859 0.076969
vt 0.232244 0.440506
vt 0.291247 0.454530
vt 0.685316 0.388716
vt 0.130148 0.436240
vt 0.867108 0.417288
vt 0.563922 0.000091
vt 0.582099 0.007382
vt 0.207942 0.000000
vt 0.293309 0.025246
vt 0.579472 0.365264
vt 0.639569 0.392860
vt 0.477201 0.361119
vt 0.693981 0.150197
vt 0.693822 0.237100
vt 0.668575 0.311882
vn -0.184200 -0.280200 -0.942100
vn -0.340200 -0.698000 -0.630200
vn -0.408100 -0.646500 -0.644600
vn -0.439300 -0.335900 -0.833200
vn -0.088400 -0.242300 0.966200
vn -0.580100 -0.259600 0.772000
vn -0.522600 -0.678800 0.515900
vn -0.527800 -0.748200 0.402000
vn 0.886500 -0.373500 0.273200
vn 0.518300 -0.430300 0.739100
vn 0.378600 -0.718900 0.583000
vn 0.579500 -0.774200 0.254700
vn -0.574000 -0.785000 -0.233100
vn -0.716900 -0.657800 0.231000
vn -0.902400 0.368300 0.223400
vn -0.545700 0.318600 0.775100
vn -0.557400 0.745400 0.365700
vn -0.643100 0.757900 0.109700
vn -0.078200 0.822400 -0.563500
vn 0.104500 0.770400 -0.628900
vn 0.156100 0.859900 -0.485900
vn -0.190600 0.911400 -0.364700
vn -0.048900 0.541200 -0.839500
vn -0.109200 0.093500 -0.989600
vn -0.351700 -0.009900 -0.936100
vn -0.093300 0.540600 -0.836100
vn 0.137300 0.191500 -0.971800
vn 0.258600 -0.052600 -0.964600
vn -0.116500 0.099000 -0.988200
vn -0.138100 0.435000 -0.889800
vn 0.197300 -0.204200 -0.958800
vn 0.156700 -0.692100 -0.704600
vn -0.130100 -0.734800 -0.665700
vn -0.171600 -0.223300 -0.959500
vn 0.072900 -0.239100 0.968300
vn -0.071900 -0.208100 0.975500
vn -0.507400 -0.679100 0.530400
vn 0.000600 -0.674000 0.738700
vn 0.194400 0.317200 0.928200
vn 0.083500 0.229800 0.969700
vn -0.017600 0.082500 0.996400
vn 0.173100 0.028600 0.984500
vn 0.021000 0.133400 0.990800
vn -0.500100 -0.004300 0.865900
vn -0.063700 0.049700 0.996700
vn 0.983700 -0.076600 -0.162400
vn 0.983700 -0.127200 0.127100
vn 0.698600 -0.715500 0.007000
vn 0.662600 -0.651300 -0.369900
vn 0.981900 0.008800 -0.189200
vn 0.978000 -0.165700 -0.126500
vn 0.995700 -0.085200 0.036800
vn 0.995700 -0.006400 -0.092400
vn 0.947300 -0.312200 -0.072000
vn 0.803300 0.027200 0.594900
vn 0.753600 -0.184000 0.631100
vn 0.972300 -0.220000 0.078400
vn -0.322700 -0.930100 -0.175500
vn -0.320400 -0.939200 -0.123700
vn -0.841100 -0.539900 -0.033200
vn -0.663000 -0.596700 -0.452100
vn 0.096700 -0.947800 -0.304000
vn 0.082800 -0.996300 -0.021400
vn -0.089700 -0.995900 -0.013000
vn -0.090900 -0.993700 -0.065000
vn 0.191200 -0.981200 -0.026100
vn -0.412100 -0.811600 -0.414000
vn -0.743800 0.503300 -0.439800
vn -0.936300 0.350700 -0.020900
vn -0.587000 0.807200 -0.062600
vn -0.901900 -0.167300 -0.398200
vn -0.984900 -0.150600 0.084800
vn -0.985700 -0.165400 0.032800
vn -0.908500 -0.110300 -0.403000
vn -0.932400 -0.229200 0.279400
vn -0.954900 -0.154000 0.253700
vn -0.357900 0.933300 -0.031100
vn -0.347500 0.909900 -0.226700
vn 0.331800 0.933400 0.136400
vn 0.093500 0.987300 -0.128400
vn -0.118500 0.957700 -0.262200
vn -0.031900 0.998000 0.054800
vn -0.136400 0.964900 -0.224400
vn -0.223800 0.763000 -0.606400
vn -0.322100 0.664200 -0.674600
vn -0.187700 0.841900 -0.505900
vn 0.411000 0.688100 -0.598000
vn 0.766100 0.092800 -0.636000
vn 0.826800 -0.052800 -0.559900
vn 0.753400 -0.146600 -0.641000
vn 0.496200 -0.528500 -0.688900
vn 0.627900 0.587500 0.510500
vn 0.383300 0.679900 0.625200
vn 0.236000 0.623000 0.745800
vn -0.060400 0.742200 0.667400
vn 0.515400 0.826900 -0.224800
vn 0.682700 0.720300 -0.123100
vn 0.796400 0.603900 0.033800
usemtl Standard
s 1
f 75/1/1 30/2/2 3/3/3 44/4/4
f 76/5/5 50/6/6 7/7/7 37/8/8
f 77/9/9 35/10/10 6/11/11 31/12/12
f 78/13/13 37/14/8 7/15/7 33/16/14
f 79/17/15 38/18/16 8/19/17 34/20/18
f 80/21/19 28/22/20 4/23/21 46/24/22
f 81/25/23 51/26/24 14/27/25 32/28/26
f 82/29/27 52/30/28 21/31/29 53/32/30
f 83/33/31 42/34/32 12/35/33 54/36/34
f 84/37/35 55/38/36 19/39/37 49/40/38
f 85/41/39 56/42/40 22/43/41 57/44/42
f 86/45/43 38/46/16 20/47/44 58/48/45
f 87/49/46 59/50/47 13/51/48 43/52/49
f 88/53/50 60/54/51 23/55/52 61/56/53
f 89/57/54 47/58/55 17/59/56 62/60/57
f 90/61/58 63/62/59 15/63/60 45/64/61
f 91/65/62 64/66/63 24/67/64 65/68/65
f 92/69/66 49/70/38 19/71/37 66/72/67
f 93/73/68 67/74/69 16/75/70 46/24/22
f 94/76/71 68/77/72 25/78/73 69/79/74
f 95/80/75 50/81/6 20/82/44 70/83/76
f 96/84/77 71/85/78 16/75/70 34/20/18
f 97/86/79 72/87/80 26/88/81 73/89/82
f 98/90/83 40/91/84 10/92/85 74/93/86
f 51/26/24 75/1/1 44/4/4 14/27/25
f 21/31/29 54/36/34 75/1/1 51/26/24
f 54/36/34 12/35/33 30/2/2 75/1/1
f 55/38/36 76/5/5 37/8/8 19/39/37
f 22/43/41 58/48/45 76/5/5 55/38/36
f 58/48/45 20/47/44 50/6/6 76/5/5
f 59/94/47 77/9/9 31/12/12 13/95/48
f 23/55/52 62/96/57 77/97/9 59/50/47
f 62/96/57 17/98/56 35/99/10 77/97/9
f 63/100/59 78/13/13 33/16/14 15/101/60
f 24/102/64 66/103/67 78/104/13 63/105/59
f 66/106/67 19/107/37 37/14/8 78/13/13
f 67/74/69 79/17/15 34/20/18 16/75/70
f 25/78/73 70/83/76 79/108/15 67/109/69
f 70/83/76 20/82/44 38/110/16 79/108/15
f 71/85/78 80/21/19 46/24/22 16/75/70
f 26/88/81 74/93/86 80/21/19 71/85/78
f 74/111/86 10/112/85 28/113/20 80/114/19
f 28/22/20 81/115/23 32/116/26 4/23/21
f 10/92/85 53/117/30 81/115/23 28/22/20
f 53/32/30 21/31/29 51/26/24 81/25/23
f 40/91/84 82/118/27 53/117/30 10/92/85
f 1/119/87 39/120/88 82/29/27 40/121/84
f 39/120/88 9/122/89 52/30/28 82/29/27
f 52/30/28 83/33/31 54/36/34 21/31/29
f 9/122/89 27/123/90 83/33/31 52/30/28
f 27/123/90 2/124/91 42/34/32 83/33/31
f 35/10/10 84/125/35 49/70/38 6/11/11
f 17/126/56 57/44/42 84/37/35 35/127/10
f 57/44/42 22/43/41 55/38/36 84/37/35
f 47/128/55 85/41/39 57/44/42 17/126/56
f 5/129/92 48/130/93 85/41/39 47/128/55
f 48/130/93 18/131/94 56/42/40 85/41/39
f 56/42/40 86/45/43 58/48/45 22/43/41
f 18/131/94 36/132/95 86/45/43 56/42/40
f 36/132/95 8/133/17 38/46/16 86/45/43
f 27/134/90 87/49/46 43/52/49 2/135/91
f 9/136/89 61/56/53 87/49/46 27/134/90
f 61/56/53 23/55/52 59/50/47 87/49/46
f 39/137/88 88/53/50 61/56/53 9/136/89
f 1/138/87 41/139/96 88/53/50 39/137/88
f 41/139/96 11/140/97 60/54/51 88/53/50
f 60/54/51 89/141/54 62/96/57 23/55/52
f 11/140/97 29/142/98 89/141/54 60/54/51
f 29/142/98 5/143/92 47/144/55 89/141/54
f 30/2/2 90/61/58 45/64/61 3/3/3
f 12/35/33 65/145/65 90/61/58 30/2/2
f 65/68/65 24/67/64 63/146/59 90/147/58
f 42/34/32 91/148/62 65/145/65 12/35/33
f 2/124/91 43/149/49 91/148/62 42/34/32
f 43/150/49 13/95/48 64/66/63 91/65/62
f 64/66/63 92/69/66 66/72/67 24/67/64
f 13/95/48 31/12/12 92/69/66 64/66/63
f 31/12/12 6/11/11 49/70/38 92/69/66
f 32/116/26 93/73/68 46/24/22 4/23/21
f 14/27/25 69/151/74 93/152/68 32/28/26
f 69/79/74 25/78/73 67/109/69 93/153/68
f 44/4/4 94/154/71 69/151/74 14/27/25
f 3/3/3 45/64/61 94/154/71 44/4/4
f 45/155/61 15/101/60 68/77/72 94/76/71
f 68/77/72 95/80/75 70/83/76 25/78/73
f 15/101/60 33/16/14 95/80/75 68/77/72
f 33/16/14 7/15/7 50/81/6 95/80/75
f 36/156/95 96/84/77 34/20/18 8/19/17
f 18/157/94 73/89/82 96/84/77 36/156/95
f 73/89/82 26/88/81 71/85/78 96/84/77
f 48/130/93 97/158/79 73/159/82 18/131/94
f 5/143/92 29/142/98 97/160/79 48/161/93
f 29/142/98 11/140/97 72/162/80 97/160/79
f 72/87/80 98/90/83 74/93/86 26/88/81
f 11/163/97 41/164/96 98/90/83 72/87/80
f 41/164/96 1/165/87 40/91/84 98/90/83
